DataRate=2000.000000
DataType=double
version=3
OpenSimVersion=4.3-2021-08-27-4bc7ad9
endheader
time	f1_1	f1_2	f1_3	p1_1	p1_2	p1_3	m1_1	m1_2	m1_3	f2_1	f2_2	f2_3	p2_1	p2_2	p2_3	m2_1	m2_2	m2_3	f3_1	f3_2	f3_3	p3_1	p3_2	p3_3	m3_1	m3_2	m3_3	f4_1	f4_2	f4_3	p4_1	p4_2	p4_3	m4_1	m4_2	m4_3
3.315	-0	0	0	-300	2252	0	0	0	0	-19.6894416809082	-4.268190860748291	377.6127014160156	-300	1351	0	-99320.6875	24087.541015625	-21509.56640625	21.16091908365659	4.840685353233634	391.3989868164062	-300	450.0000000000005	0	112709.1788869814	36627.46340083728	4030.74609375	-0	0	0	305	450.0000000000006	0	0	0	0
3.3155	-0	0	0	-300	2252	0	0	0	0	-20.44423675537109	-4.236196517944336	379.0850830078125	-300	1351	0	-99489.65625	23975.08203125	-21418.72265625	21.30764950818884	4.769371498408303	391.6541137695312	-300	450.0000000000005	0	112898.4054480466	36693.11184247296	4034.05810546875	-0	0	0	305	450.0000000000006	0	0	0	0
3.316	-0	0	0	-300	2252	0	0	0	0	-20.28791999816895	-4.550626754760742	378.8589782714844	-300	1351	0	-99504.2265625	24031.58203125	-21295.078125	21.37929905958044	4.769371499974253	392.2583618164062	-300	450.0000000000005	0	113066.4054487233	36662.15090864472	4006.62939453125	-0	0	0	305	450.0000000000006	0	0	0	0
3.3165	-0	0	0	-300	2252	0	0	0	0	-19.82084655761719	-4.566696166992188	378.339111328125	-300	1351	0	-99231.5625	23776.54296875	-21334.373046875	21.50892438001501	4.769371502807305	390.6607666015625	-300	450.0000000000005	0	113052.5695126425	36597.21731459232	4098.92529296875	-0	0	0	305	450.0000000000006	0	0	0	0
3.317	-0	0	0	-300	2252	0	0	0	0	-19.91993713378906	-4.409495830535889	378.2557373046875	-300	1351	0	-98988.203125	23654.05078125	-21287.98046875	21.55672063363515	4.575807088873897	390.7675476074219	-300	450.0000000000005	0	112879.4835774008	36493.88918580941	4030.444580078125	-0	0	0	305	450.0000000000006	0	0	0	0
3.3175	-0	0	0	-300	2252	0	0	0	0	-19.57436752319336	-4.639669418334961	378.2557373046875	-300	1351	0	-99365.90625	23844.6953125	-21222.697265625	21.36232556706803	4.633435239379897	390.7947998046875	-300	450.0000000000005	0	112588.2179537802	36430.7758981936	3990.629638671875	-0	0	0	305	450.0000000000006	0	0	0	0
3.318	-0	0	0	-300	2252	0	0	0	0	-19.65226364135742	-4.519723415374756	378.5254211425781	-300	1351	0	-99074.453125	24008.494140625	-21298.123046875	21.09621419353586	4.616542800397345	391.720703125	-300	450.0000000000005	0	112547.194514449	36514.561053547	3969.149169921875	-0	0	0	305	450.0000000000006	0	0	0	0
3.3185	-0	0	0	-300	2252	0	0	0	0	-19.57929039001465	-3.775966167449951	377.7998962402344	-300	1351	0	-99315.1328125	23987.689453125	-21280.48828125	21.5427283251047	4.528228276922578	390.8223571777344	-300	450.0000000000005	0	112655.8976374413	36606.42043092278	3960.810302734375	-0	0	0	305	450.0000000000006	0	0	0	0
3.319	-0	0	0	-300	2252	0	0	0	0	-19.80953979492188	-3.90545654296875	376.4708251953125	-300	1351	0	-99141.03125	24123.162109375	-21266.822265625	21.66936482793323	4.633391853909057	390.8613891601562	-300	450.0000000000005	0	112552.7257637654	36545.83839741789	3852.443115234375	-0	0	0	305	450.0000000000006	0	0	0	0
3.3195	-0	0	0	-300	2252	0	0	0	0	-19.75774002075195	-4.283031463623047	376.1366577148438	-300	1351	0	-99376.1953125	24162.166015625	-21244.796875	21.45112218585608	4.487593642809866	391.3047485351562	-300	450.0000000000005	0	112491.54607669	36526.41261483076	3877.519775390625	-0	0	0	305	450.0000000000006	0	0	0	0
3.32	-0	0	0	-300	2252	0	0	0	0	-19.1707649230957	-4.0272216796875	378.5628967285156	-300	1351	0	-99560.53125	23991.03125	-21237.515625	21.50882329403115	4.609519474912029	389.86962890625	-300	450.0000000000005	0	112352.6867008238	36566.04151804589	3858.2158203125	-0	0	0	305	450.0000000000006	0	0	0	0
3.3205	-0	0	0	-300	2252	0	0	0	0	-19.54653739929199	-3.785685062408447	376.8892822265625	-300	1351	0	-99423.4609375	24017.5234375	-21192.78125	21.55672063838029	4.358694547675166	389.3040771484375	-300	450.0000000000005	0	112477.7023283193	36451.8618332782	3907.06201171875	-0	0	0	305	450.0000000000006	0	0	0	0
3.321	-0	0	0	-300	2252	0	0	0	0	-19.3751220703125	-3.403381824493408	376.1366577148438	-300	1351	0	-99044.25	24156.802734375	-21200.89453125	21.55672064098665	4.23944138910583	390.0685729980469	-300	450.0000000000005	0	112350.2257649976	36489.45948674211	3866.1103515625	-0	0	0	305	450.0000000000006	0	0	0	0
3.3215	-0	0	0	-300	2252	0	0	0	0	-19.40561676025391	-3.705895185470581	377.7536315917969	-300	1351	0	-99018	24199.103515625	-21252.705078125	21.62146176999524	4.497267718798381	390.6063232421875	-300	450.0000000000005	0	112389.8742000363	36602.07667510866	3820.441650390625	-0	0	0	305	450.0000000000006	0	0	0	0
3.322	-0	0	0	-300	2252	0	0	0	0	-19.17562866210938	-3.424580574035645	378.2557373046875	-300	1351	0	-98760.3671875	24095.41015625	-21087.787109375	21.58069791574558	4.463829512188465	390.4458923339844	-300	450.0000000000005	0	112423.6163905101	36466.01026959612	3834.0927734375	-0	0	0	305	450.0000000000006	0	0	0	0
3.3225	-0	0	0	-300	2252	0	0	0	0	-19.22722244262695	-3.569927930831909	376.3688354492188	-300	1351	0	-98894.3671875	23982.203125	-21099.419921875	21.75098027786262	4.545023916697457	391.1160888671875	-300	450.0000000000005	0	112476.741388382	36563.3813645072	3777.052001953125	-0	0	0	305	450.0000000000006	0	0	0	0
3.323	-0	0	0	-300	2252	0	0	0	0	-19.33755874633789	-3.994483232498169	375.513916015625	-300	1351	0	-98931.4140625	24096.259765625	-21187.525390625	21.62858380206744	4.850617881460142	390.1246032714844	-300	450.0000000000005	0	112655.3585780677	36463.373555911	3731.529541015625	-0	0	0	305	450.0000000000006	0	0	0	0
3.3235	-0	0	0	-300	2252	0	0	0	0	-18.88211250305176	-3.75989818572998	374.3521728515625	-300	1351	0	-98952.875	23977.580078125	-21096.404296875	21.88046635449199	4.881549836580688	388.6338195800781	-300	450.0000000000005	0	112275.819514453	36514.37745386591	3766.651123046875	-0	0	0	305	450.0000000000006	0	0	0	0
3.324	-0	0	0	-300	2252	0	0	0	0	-18.66613388061523	-3.110244274139404	375.3650512695312	-300	1351	0	-98519.3984375	23832.451171875	-21038.880859375	22.06501569231353	4.599861150428595	388.5114135742188	-300	450.0000000000005	0	112196.022640501	36466.42823337189	3760.82421875	-0	0	0	305	450.0000000000006	0	0	0	0
3.3245	-0	0	0	-300	2252	0	0	0	0	-18.91726303100586	-3.553352832794189	375.2445068359375	-300	1351	0	-98829.1171875	23954.099609375	-21143.931640625	21.8947810156326	4.439955713053212	388.8605346679688	-300	450.0000000000005	0	112078.5851428396	36359.42432455522	3687.94970703125	-0	0	0	305	450.0000000000006	0	0	0	0
3.325	-0	0	0	-300	2252	0	0	0	0	-18.93377876281738	-3.539482116699219	375.3465576171875	-300	1351	0	-98750.4140625	24086.654296875	-21022.419921875	21.88758077929082	4.222754003148532	388.4453735351562	-300	450.0000000000005	0	112109.0929560159	36328.48291897199	3598.9140625	-0	0	0	305	450.0000000000006	0	0	0	0
3.3255	-0	0	0	-300	2252	0	0	0	0	-18.57236862182617	-3.272112846374512	374.8914794921875	-300	1351	0	-98464.9375	23959.0703125	-21040.49609375	22.1057242411746	4.279992586712596	388.5113525390625	-300	450.0000000000005	0	112244.3117090627	36189.07276567729	3639.640380859375	-0	0	0	305	450.0000000000006	0	0	0	0
3.326	-0	0	0	-300	2252	0	0	0	0	-18.46657562255859	-3.140710830688477	374.9932861328125	-300	1351	0	-98599.03125	23955.806640625	-21083.47265625	22.17769613344109	4.327763088468696	388.3510437011719	-300	450.0000000000005	0	112138.0851411881	36434.98682585563	3598.749755859375	-0	0	0	305	450.0000000000006	0	0	0	0
3.3265	-0	0	0	-300	2252	0	0	0	0	-18.67068862915039	-3.255516767501831	375.3464660644531	-300	1351	0	-98669.8125	24026.328125	-21068.25390625	22.30710782519684	4.58545065996163	388.7659301757812	-300	450.0000000000005	0	112147.2101407937	36453.03370105506	3553.01220703125	-0	0	0	305	450.0000000000006	0	0	0	0
3.327	-0	0	0	-300	2252	0	0	0	0	-18.32602691650391	-3.161886692047119	375.1609497070312	-300	1351	0	-98458.59375	23930.4921875	-20994.2578125	22.03162564959656	4.487805848032573	388.1909790039062	-300	450.0000000000005	0	111966.6554508639	36564.20947835892	3610.06005859375	-0	0	0	305	450.0000000000006	0	0	0	0
3.3275	-0	0	0	-300	2252	0	0	0	0	-18.06289863586426	-2.847716808319092	373.7306213378906	-300	1351	0	-98324.390625	23798.529296875	-20906.2109375	22.42909421524327	4.544899477019817	388.9259338378906	-300	450.0000000000005	0	111995.155455879	36334.7446352318	3590.615966796875	-0	0	0	305	450.0000000000006	0	0	0	0
3.328	-0	0	0	-300	2252	0	0	0	0	-17.88449096679688	-3.442587614059448	375.1960754394531	-300	1351	0	-98240.7421875	23983.333984375	-20908.111328125	22.29783048551032	4.399527560241045	388.2857360839844	-300	450.0000000000005	0	111829.8742031471	36459.74072536947	3617.867919921875	-0	0	0	305	450.0000000000006	0	0	0	0
3.3285	-0	0	0	-300	2252	0	0	0	0	-18.38616943359375	-2.838979721069336	374.1679992675781	-300	1351	0	-98224.5	23993.712890625	-20914.697265625	22.5010794619252	4.456549182572596	387.907470703125	-300	450.0000000000005	0	111616.8273294495	36400.15087696318	3547.297119140625	-0	0	0	305	450.0000000000006	0	0	0	0
3.329	-0	0	0	-300	2252	0	0	0	0	-18.01177787780762	-2.788601398468018	374.7412109375	-300	1351	0	-98186.34375	24212.578125	-20869.986328125	22.62125005695537	4.37563468782352	387.907470703125	-300	450.0000000000005	0	111751.1867084088	36218.99462989969	3623.168701171875	-0	0	0	305	450.0000000000006	0	0	0	0
3.3295	-0	0	0	-300	2252	0	0	0	0	-18.38605117797852	-2.920105457305908	374.5387268066406	-300	1351	0	-98229.3359375	24004.564453125	-21012.291015625	22.23327627400829	4.263384351280119	388.6709594726562	-300	450.0000000000005	0	111720.8663936974	36320.17431673703	3490.632568359375	-0	0	0	305	450.0000000000006	0	0	0	0
3.33	-0	0	0	-300	2252	0	0	0	0	-18.35182762145996	-2.805452346801758	373.2940979003906	-300	1351	0	-97878.6484375	23815.84765625	-20882.59375	22.0889853518662	4.175069814892898	388.700439453125	-300	450.0000000000005	0	111824.5538934159	36333.05713150318	3469.61962890625	-0	0	0	305	450.0000000000006	0	0	0	0
3.3305	-0	0	0	-300	2252	0	0	0	0	-17.74407958984375	-2.627145767211914	373.2272644042969	-300	1351	0	-98115.71875	23662.556640625	-20782.05078125	22.08898535520435	4.022333627911697	389.1148986816406	-300	450.0000000000005	0	111629.428892836	36359.58837723859	3464.041748046875	-0	0	0	305	450.0000000000006	0	0	0	0
3.331	-0	0	0	-300	2252	0	0	0	0	-17.98254013061523	-2.448880672454834	372.2341918945312	-300	1351	0	-98217.21875	23739.103515625	-20790.361328125	22.4770678577079	4.103269591441117	388.5403442382812	-300	450.0000000000005	0	111495.9367054573	36354.03759307103	3520.635009765625	-0	0	0	305	450.0000000000006	0	0	0	0
3.3315	-0	0	0	-300	2252	0	0	0	0	-18.10973358154297	-2.610350608825684	371.6292419433594	-300	1351	0	-98123.71875	23864.763671875	-20953.505859375	22.42723074423535	4.151119722340417	388.5111694335938	-300	450.0000000000005	0	111625.0851438241	36314.37743964366	3479.9111328125	-0	0	0	305	450.0000000000006	0	0	0	0
3.332	-0	0	0	-300	2252	0	0	0	0	-18.2457275390625	-2.741847991943359	373.4296875	-300	1351	0	-97997	23854.375	-20890.865234375	22.61378088180196	4.279884355781614	387.0786743164062	-300	450.0000000000005	0	111444.2179568861	36288.66259194068	3455.697265625	-0	0	0	305	450.0000000000006	0	0	0	0
3.3325	-0	0	0	-300	2252	0	0	0	0	-18.08418464660645	-3.102685928344727	373.2100524902344	-300	1351	0	-97934.625	23875.962890625	-20811.783203125	22.58064260701601	4.263388173569316	387.2742919921875	-300	450.0000000000005	0	111353.9992105537	36120.85399621889	3520.580322265625	-0	0	0	305	450.0000000000006	0	0	0	0
3.333	-0	0	0	-300	2252	0	0	0	0	-17.81657600402832	-3.208694458007812	372.6889038085938	-300	1351	0	-98027.4375	23560.7109375	-20909.30078125	22.40323629791103	4.175073636458336	387.5582885742188	-300	450.0000000000005	0	111445.522651073	35982.70946696919	3479.955322265625	-0	0	0	305	450.0000000000006	0	0	0	0
3.3335	-0	0	0	-300	2252	0	0	0	0	-17.48099136352539	-2.66538143157959	373.9503784179688	-300	1351	0	-97617	23755.966796875	-20876.7265625	22.549049274056	4.730365292324623	387.0494384765625	-300	450.0000000000005	0	111704.1242079505	36239.96337887111	3520.706298828125	-0	0	0	305	450.0000000000006	0	0	0	0
